<?xml version="1.0" standalone="no"?>
<!DOCTYPE svg PUBLIC "-//W3C//DTD SVG 1.1//EN" "http://www.w3.org/Graphics/SVG/1.1/DTD/svg11.dtd" >
<svg xmlns="http://www.w3.org/2000/svg" xmlns:xlink="http://www.w3.org/1999/xlink" version="1.1">
<metadata></metadata>
<defs>
<font id="phenomenathin" horiz-adv-x="400" >
<font-face units-per-em="1000" ascent="800" descent="-200" />
<missing-glyph horiz-adv-x="261" />
<glyph horiz-adv-x="0" />
<glyph horiz-adv-x="333" />
<glyph unicode=" "  horiz-adv-x="261" />
<glyph unicode="&#x09;" horiz-adv-x="261" />
<glyph unicode="&#xa0;" horiz-adv-x="261" />
<glyph unicode="!" horiz-adv-x="208" d="M99 112q-5 0 -5 5v578q0 5 5 5h10q5 0 5 -5v-578q0 -5 -5 -5h-10zM104 -7q-22 0 -22 22t22 22t22 -22t-22 -22z" />
<glyph unicode="&#x22;" horiz-adv-x="167" d="M34 695q0 5 5 5h19q5 0 4 -5l-21 -134q0 -5 -6 -5h-5q-5 0 -5 5zM114 695q0 5 5 5h19q5 0 4 -5l-21 -134q0 -5 -6 -5h-5q-5 0 -5 5z" />
<glyph unicode="#" horiz-adv-x="517" d="M94 0q-6 0 -5 6l42 183h-95q-6 0 -5 5l2 10q1 4 6 4h96l63 273h-95q-6 0 -5 5l2 10q1 4 6 4h96l45 196q1 4 5 4h9q7 0 5 -6l-45 -194h146l45 196q1 4 5 4h9q6 0 5 -6l-45 -194h95q6 0 5 -5l-2 -10q-1 -4 -6 -4h-96l-63 -273h95q6 0 5 -5l-2 -10q-1 -4 -6 -4h-96l-42 -185 q-1 -4 -5 -4h-9q-7 0 -5 6l42 183h-146l-42 -185q-1 -4 -5 -4h-9zM154 208h146l63 273h-146z" />
<glyph unicode="$" horiz-adv-x="409" d="M360 149q0 -64 -39.5 -108t-105.5 -48v-73q0 -5 -5 -5h-8q-5 0 -5 5v73q-67 3 -107.5 47.5t-40.5 112.5q0 5 5 5h10q5 0 5 -5q2 -62 38.5 -101.5t97.5 -39.5q62 0 98.5 39t36.5 98q0 39 -16 73t-41 58.5t-55.5 47t-61 45.5t-55.5 47.5t-41 58t-16 72.5q0 67 40 110 t103 46v73q0 5 5 5h8q5 0 5 -5v-73q61 -4 100.5 -47.5t39.5 -112.5q0 -5 -5 -5h-10q-5 0 -5 5q-1 66 -37 103.5t-93 37.5t-94 -37t-37 -100q0 -49 29.5 -90t71.5 -71t84 -61.5t71.5 -77t29.5 -102.5z" />
<glyph unicode="%" horiz-adv-x="606" d="M116 398q-34 0 -55 24t-21 59v143q0 35 21 59t55 24q36 0 56.5 -23.5t20.5 -59.5v-143q0 -36 -20.5 -59.5t-56.5 -23.5zM46 -2q-8 0 -4 6l505 694q2 4 5 4h9q9 0 4 -6l-505 -694q-2 -4 -5 -4h-9zM116 415q29 0 44 18.5t15 47.5v143q0 29 -15 47.5t-44 18.5 q-28 0 -43.5 -19t-15.5 -47v-143q0 -28 15.5 -47t43.5 -19zM489 -7q-34 0 -55 24t-21 59v143q0 35 21 59t55 24q36 0 56.5 -23.5t20.5 -59.5v-143q0 -36 -20.5 -59.5t-56.5 -23.5zM489 10q29 0 44 18.5t15 47.5v143q0 29 -15 47.5t-44 18.5q-27 0 -43 -19t-16 -47v-143 q0 -28 16 -47t43 -19z" />
<glyph unicode="&#x26;" horiz-adv-x="499" d="M215 -2q-67 0 -110 45.5t-43 116.5v50q0 56 27 97t79 53q-50 13 -75.5 53.5t-25.5 96.5v37q0 65 44 112.5t112 47.5q64 0 108.5 -46.5t46.5 -113.5q0 -5 -5 -5h-10q-5 0 -5 5q-2 60 -40.5 100.5t-94.5 40.5q-61 0 -99 -41.5t-38 -99.5v-37q0 -64 35.5 -102.5t99.5 -38.5 h236q5 0 5 -5v-8q0 -5 -5 -5h-75v-343q0 -10 -10 -10h-157zM215 17h147v334h-141q-67 0 -103.5 -38.5t-36.5 -102.5v-50q0 -64 37.5 -103.5t96.5 -39.5z" />
<glyph unicode="'" horiz-adv-x="117" d="M46 695q0 5 5 5h19q5 0 4 -5l-21 -134q0 -5 -6 -5h-5q-5 0 -5 5z" />
<glyph unicode="(" horiz-adv-x="212" d="M177 -120q-49 1 -77 35.5t-28 91.5v687q0 57 28 91t77 35q5 0 5 -5v-9q0 -5 -5 -5q-41 -2 -63 -30t-22 -77v-687q0 -50 22.5 -78.5t62.5 -29.5q5 0 5 -5v-9q0 -5 -5 -5z" />
<glyph unicode=")" horiz-adv-x="211" d="M34 -120q-5 0 -5 5v9q0 5 5 5q40 1 62.5 29.5t22.5 78.5v687q0 49 -22 77t-63 30q-5 0 -5 5v9q0 5 5 5q49 -1 77 -35t28 -91v-687q0 -57 -28 -91.5t-77 -35.5z" />
<glyph unicode="*" horiz-adv-x="308" d="M92 511l-8 5q-4 4 -1 7l56 77l-90 29q-5 2 -3 7l3 8q1 5 6 3l90 -29v95q0 5 5 5h9q5 0 5 -5v-95l90 29q5 2 6 -3l3 -8q2 -5 -3 -7l-90 -29l56 -77q3 -3 -1 -7l-8 -5q-3 -3 -7 1l-56 77l-55 -77q-4 -4 -7 -1z" />
<glyph unicode="+" d="M351 367q5 0 5 -5v-8q0 -5 -5 -5h-142v-143q0 -5 -5 -5h-8q-5 0 -5 5v143h-142q-5 0 -5 5v8q0 5 5 5h142v143q0 5 5 5h8q5 0 5 -5v-143h142z" />
<glyph unicode="," horiz-adv-x="77" d="M29 43q0 5 5 5h19q5 0 4 -5l-21 -134q0 -5 -6 -5h-5q-5 0 -5 5z" />
<glyph unicode="-" horiz-adv-x="290" d="M30 246q-5 0 -5 5v9q0 5 5 5h230q5 0 5 -5v-9q0 -5 -5 -5h-230z" />
<glyph unicode="." horiz-adv-x="84" d="M42 -7q-22 0 -22 22t22 22t22 -22t-22 -22z" />
<glyph unicode="/" d="M327 696q2 4 6 4h11q6 0 4 -6l-275 -690q-2 -4 -6 -4h-11q-6 0 -4 6z" />
<glyph unicode="0" horiz-adv-x="408" d="M204 -10q-62 0 -106 44t-44 106v420q0 62 44 106t106 44t106 -44t44 -106v-420q0 -62 -44 -106t-106 -44zM95 69l203 581q-38 40 -94 40q-54 0 -92 -38t-38 -92v-420q0 -37 21 -71zM204 10q54 0 92 38t38 92v420q0 38 -21 72l-204 -581q39 -41 95 -41z" />
<glyph unicode="1" horiz-adv-x="252" d="M150 700q20 0 20 -20v-675q0 -5 -5 -5h-10q-5 0 -5 5v675h-115q-5 0 -5 5v10q0 5 5 5h115z" />
<glyph unicode="2" horiz-adv-x="393" d="M344 553q0 -56 -28.5 -113.5t-68.5 -107t-80.5 -98.5t-69 -105t-28.5 -109h270q5 0 5 -5v-10q0 -5 -5 -5h-280q-10 0 -10 10v10q0 55 28.5 113t69 107.5t80.5 99t68.5 105.5t28.5 108q0 61 -37 99t-93 36q-54 0 -89 -39t-36 -102q0 -5 -5 -5h-10q-5 0 -5 5 q1 69 42.5 114.5t102.5 45.5q65 2 107.5 -42t42.5 -112z" />
<glyph unicode="3" horiz-adv-x="390" d="M187 -7q-62 0 -103.5 44.5t-42.5 115.5q0 5 5 5h10q5 0 5 -5q1 -62 36.5 -101t89.5 -39q59 0 94.5 38.5t35.5 101.5v119q0 53 -37.5 90t-91.5 37h-43q-3 0 -3 3v3q0 5 3 9l165 267h-256q-5 0 -5 5v9q0 5 5 5h276q5 0 5 -5v-4q0 -2 -2 -6l-165 -267h20q62 0 105.5 -42.5 t43.5 -103.5v-119q0 -71 -41.5 -115.5t-108.5 -44.5z" />
<glyph unicode="4" d="M355 250q5 0 5 -5v-10q0 -5 -5 -5h-49v-225q0 -5 -5 -5h-10q-5 0 -5 5v225h-246q-9 0 -9 7v2q0 6 1 9l159 448q2 4 5 4h10q6 0 4 -6l-157 -444h233v245q0 5 5 5h10q5 0 5 -5v-245h49z" />
<glyph unicode="5" horiz-adv-x="398" d="M203 470q65 0 107.5 -45t42.5 -115v-160q0 -70 -42.5 -115t-108.5 -45q-63 0 -107 45t-45 118q0 5 5 5h10q5 0 5 -5q1 -64 39 -103.5t93 -39.5q58 0 94.5 39t36.5 101v160q0 61 -36.5 100.5t-93.5 39.5q-50 0 -88 -35t-40 -81q0 -8 -8 -8h-4q-8 0 -8 8v346q0 20 20 20 h263q5 0 5 -5v-10q0 -5 -5 -5h-263v-289q18 36 52 57.5t76 21.5z" />
<glyph unicode="6" horiz-adv-x="406" d="M204 -7q-62 0 -106 44t-44 106v397q0 75 42 121t107 46q62 0 106 -44t45 -112q0 -5 -5 -5h-10q-5 0 -5 5q-1 61 -38.5 99t-92.5 38q-56 0 -92.5 -40.5t-36.5 -107.5v-162q18 37 52.5 59.5t77.5 22.5q62 0 106 -43.5t44 -105.5v-168q0 -62 -44 -106t-106 -44zM204 12 q54 0 92 38t38 93v168q0 54 -38 92t-92 38t-92 -38t-38 -92v-168q0 -55 38 -93t92 -38z" />
<glyph unicode="7" horiz-adv-x="348" d="M30 695q0 5 5 5h266q6 0 6 -6q0 -7 -1 -12l-170 -678q-1 -4 -5 -4h-10q-7 0 -5 6l169 675h-250q-5 0 -5 5v9z" />
<glyph unicode="8" horiz-adv-x="402" d="M255 360q44 -16 71.5 -54t27.5 -85v-78q0 -64 -42 -107t-111 -43t-111 43t-42 107v78q0 47 27.5 85t71.5 54q-39 17 -63.5 55t-24.5 86v60q0 61 39 103.5t103 42.5t103 -42.5t39 -103.5v-60q0 -48 -24.5 -86t-63.5 -55zM79 501q0 -55 36 -93t86 -38t86 38t36 93v60 q0 54 -33 90.5t-89 36.5t-89 -36.5t-33 -90.5v-60zM334 143v78q0 54 -39 92t-94 38t-94 -38t-39 -92v-78q0 -57 36 -94t97 -37t97 37t36 94z" />
<glyph unicode="9" horiz-adv-x="420" d="M216 707q62 0 106 -44t44 -106v-397q0 -75 -42 -121t-107 -46q-62 0 -106 44t-45 112q0 5 5 5h10q5 0 5 -5q1 -61 38.5 -99t92.5 -38q56 0 92.5 40.5t36.5 107.5v162q-18 -37 -52.5 -59.5t-77.5 -22.5q-62 0 -106 43.5t-44 105.5v168q0 62 44 106t106 44zM216 688 q-54 0 -92 -38t-38 -93v-168q0 -54 38 -92t92 -38t92 38t38 92v168q0 55 -38 93t-92 38z" />
<glyph unicode=":" horiz-adv-x="150" d="M55 344q-22 0 -22 22t22 22t22 -22t-22 -22zM55 -7q-22 0 -22 22t22 22t22 -22t-22 -22z" />
<glyph unicode=";" horiz-adv-x="150" d="M60 343q-22 0 -22 22t22 22t22 -22t-22 -22zM49 43q0 5 5 5h19q5 0 4 -5l-21 -134q0 -5 -6 -5h-5q-5 0 -5 5z" />
<glyph unicode="&#x3c;" horiz-adv-x="340" d="M290 490q0 -2 -2 -4l-220 -129l220 -129q2 -2 2 -4v-6q0 -4 -3 -5.5t-6 0.5l-229 133q-2 2 -2 4v14q0 2 2 4l229 134q3 1 6 -0.5t3 -4.5v-7z" />
<glyph unicode="=" d="M49 399q-5 0 -5 5v8q0 5 5 5h302q5 0 5 -5v-8q0 -5 -5 -5h-302zM49 299q-5 0 -5 5v8q0 5 5 5h302q5 0 5 -5v-8q0 -5 -5 -5h-302z" />
<glyph unicode="&#x3e;" horiz-adv-x="340" d="M288 368q2 -2 2 -4v-14q0 -2 -2 -4l-229 -133q-3 -2 -6 -0.5t-3 5.5v6q0 2 2 4l220 129l-220 129q-2 2 -2 4v7q0 3 3 4.5t6 0.5z" />
<glyph unicode="?" horiz-adv-x="310" d="M145 125q-5 0 -5 5l-1 62q-1 49 13.5 90t35.5 70t42 57.5t35.5 65.5t14.5 80q0 59 -37 96t-93 37t-92.5 -39t-37.5 -102q0 -5 -5 -5h-10q-5 0 -5 5q1 69 44 114.5t106 45.5q65 0 107.5 -43t42.5 -109q0 -44 -14.5 -82t-35.5 -66.5t-41.5 -58t-35 -69.5t-14.5 -87l1 -62 q0 -5 -5 -5h-10zM152 -7q-22 0 -22 22t22 22t22 -22t-22 -22z" />
<glyph unicode="@" horiz-adv-x="610" d="M230 -100q-77 0 -124.5 50t-47.5 132v263q0 82 47.5 132t124.5 50h82q56 0 90 -41.5t34 -109.5v-178q0 -65 -34 -105t-90 -40q-62 0 -100.5 40t-38.5 105q0 62 39 101t100 39h105v38q0 60 -29 96.5t-76 36.5h-82q-69 0 -111 -45t-42 -119v-263q0 -74 42 -119t111 -45h150 q69 0 111 45t42 119v438q0 73 -42 118.5t-111 45.5h-175q-5 0 -5 5v8q0 5 5 5h175q77 0 124.5 -50t47.5 -132v-438q0 -82 -47.5 -132t-124.5 -50h-150zM312 71q47 0 76 35t29 92v122h-105q-52 0 -86 -34t-34 -88q0 -57 33 -92t87 -35z" />
<glyph unicode="A" horiz-adv-x="453" d="M77 0q-5 0 -5 5v527q0 79 42.5 127t111.5 48t111.5 -48t43.5 -127v-527q2 -5 -4 -5h-10q-4 0 -6 5v272h-269v-272q0 -5 -5 -5h-10zM92 296h269v236q0 71 -36.5 113.5t-98.5 42.5q-60 0 -97 -42.5t-37 -113.5v-236z" />
<glyph unicode="B" horiz-adv-x="430" d="M282 362q46 -15 72 -53t26 -92v-64q0 -70 -42 -112.5t-111 -42.5h-145q-10 0 -10 10v539q0 72 40 116t105 44t105 -44t40 -116v-40q0 -52 -21.5 -90t-58.5 -55zM92 547v-177h135q52 0 83.5 37.5t31.5 99.5v40q0 64 -34.5 102.5t-90.5 38.5t-90.5 -38.5t-34.5 -102.5z M360 153v64q0 60 -36.5 97t-96.5 37h-135v-334h135q60 0 96.5 37.5t36.5 98.5z" />
<glyph unicode="C" horiz-adv-x="420" d="M220 -7q-68 0 -113 47.5t-45 117.5v384q0 70 45 117.5t113 47.5q66 0 108.5 -46t44.5 -114q0 -5 -5 -5h-10q-5 0 -5 5q-2 61 -38 101t-95 40t-98.5 -42t-39.5 -104v-384q0 -63 39.5 -104.5t98.5 -41.5q61 0 98.5 39.5t39.5 101.5q0 5 5 5h10q5 0 5 -6q-2 -69 -46 -114 t-112 -45z" />
<glyph unicode="D" horiz-adv-x="443" d="M92 -2q-10 0 -10 10v684q0 10 10 10h131q69 0 113.5 -43t44.5 -108v-388q0 -69 -44.5 -117t-113.5 -48h-131zM102 17h121q60 0 99 42.5t39 103.5v388q0 57 -38.5 94.5t-99.5 37.5h-121v-666z" />
<glyph unicode="E" horiz-adv-x="359" d="M217 -2q-71 0 -113 46t-42 119v374q0 73 42 119t113 46h90q5 0 5 -5v-9q0 -5 -5 -5h-90q-62 0 -98.5 -40.5t-36.5 -105.5v-171h205q5 0 5 -5v-9q0 -5 -5 -5h-205v-184q0 -65 36.5 -105.5t98.5 -40.5h90q5 0 5 -5v-9q0 -5 -5 -5h-90z" />
<glyph unicode="F" horiz-adv-x="347" d="M77 0q-5 0 -5 5v540q0 66 43 110.5t115 44.5h77q5 0 5 -5v-9q0 -5 -5 -5h-77q-64 0 -101 -38.5t-37 -97.5v-186h195q5 0 5 -5v-9q0 -5 -5 -5h-195v-335q0 -5 -5 -5h-10z" />
<glyph unicode="G" horiz-adv-x="436" d="M223 -7q-67 0 -114 47t-47 118v364q0 84 45.5 134.5t113.5 50.5q65 0 110.5 -45.5t46.5 -114.5q0 -5 -5 -5h-10q-5 0 -5 5q-1 62 -40.5 101.5t-96.5 39.5q-59 0 -99 -44.5t-40 -121.5v-364q0 -63 41 -104.5t100 -41.5t100 41t41 105v182h-132q-5 0 -5 5v9q0 5 5 5h142 q10 0 10 -10v-191q0 -70 -47 -117.5t-114 -47.5z" />
<glyph unicode="H" horiz-adv-x="458" d="M356 695q0 5 5 5h10q5 0 5 -5v-690q0 -5 -5 -5h-10q-5 0 -5 5v342h-254v-342q0 -5 -5 -5h-10q-5 0 -5 5v690q0 5 5 5h10q5 0 5 -5v-329h254v329z" />
<glyph unicode="I" horiz-adv-x="184" d="M82 695q0 5 5 5h10q5 0 5 -5v-690q0 -5 -5 -5h-10q-5 0 -5 5v690z" />
<glyph unicode="J" horiz-adv-x="408" d="M185 -7q-69 0 -111 45t-44 115q0 5 5 5h10q5 0 5 -5q2 -63 38 -102t97 -39q131 0 131 166v517q0 5 5 5h10q5 0 5 -5v-517q0 -185 -151 -185z" />
<glyph unicode="K" horiz-adv-x="456" d="M87 0q-5 0 -5 5v690q0 5 5 5h10q5 0 5 -5v-325h125l147 326q2 4 6 4h11q5 0 3 -6l-147 -325q57 -8 96 -55t39 -109v-200q0 -5 -5 -5h-10q-5 0 -5 5v200q0 61 -39.5 103.5t-95.5 42.5h-125v-346q0 -5 -5 -5h-10z" />
<glyph unicode="L" horiz-adv-x="337" d="M227 19h75q5 0 5 -5v-9q0 -5 -5 -5h-75q-67 0 -111 48t-44 117v530q0 5 5 5h10q5 0 5 -5v-530q0 -61 38 -103.5t97 -42.5z" />
<glyph unicode="M" horiz-adv-x="684" d="M471 707q64 0 102.5 -47t38.5 -118v-537q0 -5 -5 -5h-10q-5 0 -5 5v537q0 65 -32.5 105.5t-88.5 40.5q-51 0 -85 -42.5t-34 -103.5v-537q0 -5 -5 -5h-10q-5 0 -5 5v537q0 62 -33.5 104t-85.5 42q-56 0 -88.5 -41t-32.5 -105v-537q0 -5 -5 -5h-10q-5 0 -5 5v537 q0 72 38 118.5t103 46.5q44 0 79 -28.5t50 -73.5q15 46 49.5 74t79.5 28z" />
<glyph unicode="N" horiz-adv-x="452" d="M77 0q-5 0 -5 5v527q0 79 42.5 127t111.5 48t111.5 -48t42.5 -127v-527q0 -5 -5 -5h-10q-5 0 -5 5v527q0 72 -36.5 114t-97.5 42t-97.5 -42t-36.5 -114v-527q0 -5 -5 -5h-10z" />
<glyph unicode="O" horiz-adv-x="446" d="M223 -7q-74 0 -117.5 49t-43.5 135v345q0 87 43.5 136t117.5 49t117.5 -49t43.5 -136v-345q0 -86 -43.5 -135t-117.5 -49zM223 12q65 0 103 43.5t38 121.5v345q0 79 -38 122.5t-103 43.5t-103 -43.5t-38 -122.5v-345q0 -78 38 -121.5t103 -43.5z" />
<glyph unicode="P" horiz-adv-x="411" d="M77 0q-5 0 -5 5v537q0 73 39.5 119t105.5 46q67 0 108 -46.5t41 -118.5v-97q0 -70 -43 -117.5t-104 -47.5h-127v-275q0 -5 -5 -5h-10zM92 299h127q53 0 90 41t37 105v97q0 66 -34.5 106t-94.5 40q-58 0 -91.5 -40.5t-33.5 -105.5v-243z" />
<glyph unicode="Q" horiz-adv-x="448" d="M384 -1q4 -4 0 -8l-7 -7q-4 -4 -8 0l-43 43q-42 -34 -103 -34q-74 0 -117.5 49t-43.5 135v345q0 87 43.5 136t117.5 49t117.5 -49t43.5 -136v-345q0 -86 -43 -135zM223 12q55 0 89 30l-67 67q-4 4 0 8l7 7q4 4 8 0l67 -67q37 43 37 120v345q0 79 -38 122.5t-103 43.5 t-103 -43.5t-38 -122.5v-345q0 -78 38 -121.5t103 -43.5z" />
<glyph unicode="R" horiz-adv-x="433" d="M77 0q-5 0 -5 5v537q0 72 43 118.5t109 46.5t109 -47t43 -118v-71q0 -67 -40 -114.5t-94 -50.5l144 -300q2 -6 -4 -6h-11q-4 0 -6 4l-144 302h-129v-301q0 -5 -5 -5h-10zM92 325h132q58 0 95 40.5t37 105.5v71q0 65 -37 105.5t-95 40.5t-95 -41t-37 -105v-217z" />
<glyph unicode="S" horiz-adv-x="409" d="M205 -7q-70 0 -113 45t-43 115q0 5 5 5h10q5 0 5 -5q2 -62 38.5 -101.5t97.5 -39.5q62 0 98.5 39t36.5 98q0 39 -16 73t-41 58.5t-55.5 47t-61 45.5t-55.5 47.5t-41 58t-16 72.5q0 70 42.5 113t108.5 43q64 0 107 -44t43 -116q0 -5 -5 -5h-10q-5 0 -5 5q-1 66 -37 103.5 t-93 37.5t-94 -37t-37 -100q0 -49 29.5 -90t71.5 -71t84 -61.5t71.5 -77t29.5 -102.5q0 -67 -42.5 -111.5t-112.5 -44.5z" />
<glyph unicode="T" horiz-adv-x="360" d="M325 700q5 0 5 -5v-9q0 -5 -5 -5h-135v-676q0 -5 -5 -5h-10q-5 0 -5 5v676h-135q-5 0 -5 5v9q0 5 5 5h290z" />
<glyph unicode="U" horiz-adv-x="452" d="M77 700h10q5 0 5 -5v-527q0 -72 36.5 -114t97.5 -42t97.5 42t36.5 114v527q0 5 5 5h10q5 0 5 -5v-527q0 -79 -42.5 -127t-111.5 -48t-111.5 48t-42.5 127v527q0 5 5 5z" />
<glyph unicode="V" d="M365 700q7 0 5 -6l-153 -687q-1 -9 -11 -9h-12q-10 0 -11 9l-153 687q-2 6 5 6h9q5 0 6 -4l150 -675l150 675q1 4 6 4h9z" />
<glyph unicode="W" horiz-adv-x="684" d="M607 700q5 0 5 -5v-537q0 -71 -38.5 -118t-102.5 -47q-45 0 -79.5 28t-49.5 74q-15 -45 -50 -73.5t-79 -28.5q-65 0 -103 46.5t-38 118.5v537q0 5 5 5h10q5 0 5 -5v-537q0 -64 32.5 -105t88.5 -41q52 0 85.5 42t33.5 104v537q0 5 5 5h10q5 0 5 -5v-537q0 -61 34 -103.5 t85 -42.5q56 0 88.5 40.5t32.5 105.5v537q0 5 5 5h10z" />
<glyph unicode="X" horiz-adv-x="424" d="M362 502q0 -49 -28 -89.5t-71 -57.5q44 -17 71.5 -58.5t27.5 -95.5v-196q0 -5 -5 -5h-10q-5 0 -5 5v196q0 63 -37.5 104t-92.5 41q-54 0 -92 -41t-38 -104v-196q0 -5 -5 -5h-10q-5 0 -5 5v196q0 54 27.5 95.5t70.5 58.5q-43 17 -70.5 57t-27.5 90v193q0 5 5 5h10 q5 0 5 -5v-193q0 -57 38 -97t92 -40t92 39.5t38 97.5v193q0 5 5 5h10q5 0 5 -5v-193z" />
<glyph unicode="Y" horiz-adv-x="414" d="M202 0q-5 0 -5 5v224q-59 5 -99.5 51t-40.5 114v301q0 5 5 5h10q5 0 5 -5v-301q0 -64 38 -105t92 -41q55 0 92.5 41t37.5 105v301q0 5 5 5h10q5 0 5 -5v-301q0 -68 -40.5 -114t-99.5 -51v-224q0 -5 -5 -5h-10z" />
<glyph unicode="Z" horiz-adv-x="411" d="M70 19h286q5 0 5 -5v-9q0 -5 -5 -5h-294q-12 0 -12 12v3q0 9 3 15l289 651h-276q-5 0 -5 5v9q0 5 5 5h284q12 0 12 -11v-4q0 -9 -3 -15z" />
<glyph unicode="[" horiz-adv-x="239" d="M184 806q0 -5 -5 -5h-85v-902h85q5 0 5 -5v-9q0 -5 -5 -5h-95q-10 0 -10 10v920q0 10 10 10h95q5 0 5 -5v-9z" />
<glyph unicode="\" horiz-adv-x="392" d="M63 700q4 0 6 -4l275 -690q2 -6 -4 -6h-11q-4 0 -6 4l-275 690q-2 6 4 6h11z" />
<glyph unicode="]" horiz-adv-x="235" d="M51 806v9q0 5 5 5h95q10 0 10 -10v-920q0 -10 -10 -10h-95q-5 0 -5 5v9q0 5 5 5h85v902h-85q-5 0 -5 5z" />
<glyph unicode="^" horiz-adv-x="280" d="M259 486q3 -6 -4 -6h-9q-5 0 -6 4l-100 196l-100 -196q-1 -4 -6 -4h-9q-7 0 -4 6l107 210q1 4 6 4h12q5 0 6 -4z" />
<glyph unicode="_" horiz-adv-x="390" d="M20 -12q0 5 5 5h340q5 0 5 -5v-9q0 -5 -5 -5h-340q-5 0 -5 5v9z" />
<glyph unicode="a" horiz-adv-x="392" d="M200 -7q-71 0 -110 40.5t-39 114.5q0 66 40.5 103t117.5 37h106v68q0 63 -30.5 98t-84.5 35q-55 0 -87 -30.5t-35 -78.5q0 -5 -5 -5h-9q-5 0 -5 5q3 56 40 91.5t101 35.5q62 0 98 -40t36 -111v-208q0 -72 -35 -113.5t-99 -41.5zM200 11q55 0 85 36.5t30 100.5v122h-106 q-68 0 -103.5 -32t-35.5 -90q0 -65 34 -101t96 -36z" />
<glyph unicode="b" horiz-adv-x="407" d="M207 507q59 0 100.5 -44t41.5 -106v-214q0 -62 -41.5 -106t-100.5 -44t-100.5 44t-41.5 106v552q0 5 5 5h9q5 0 5 -5v-271q16 37 50 60t73 23zM330 143v214q0 55 -36 93.5t-87 38.5t-87 -38.5t-36 -93.5v-214q0 -55 36 -93.5t87 -38.5t87 38.5t36 93.5z" />
<glyph unicode="c" horiz-adv-x="390" d="M201 -7q-64 0 -103.5 42t-39.5 110v203q0 71 38.5 115t101.5 44q60 0 98.5 -35t40.5 -92q0 -5 -5 -5h-9q-5 0 -5 5q-2 49 -35 79t-85 30q-55 0 -88 -38.5t-33 -102.5v-203q0 -60 34 -97t90 -37q52 0 86 34t36 90q0 5 5 5h9q5 0 5 -5q-2 -64 -41 -103t-100 -39z" />
<glyph unicode="d" horiz-adv-x="407" d="M337 700q5 0 5 -5v-552q0 -62 -41.5 -106t-100.5 -44t-100.5 44t-41.5 106v214q0 62 41.5 106t100.5 44q39 0 73 -23t50 -60v271q0 5 5 5h9zM323 143v214q0 55 -36 93.5t-87 38.5t-87 -38.5t-36 -93.5v-214q0 -55 36 -93.5t87 -38.5t87 38.5t36 93.5z" />
<glyph unicode="e" horiz-adv-x="389" d="M194 -7q-66 0 -101 42t-35 108v213q0 66 38.5 108.5t101.5 42.5q61 0 100.5 -42.5t39.5 -104.5q0 -63 -41 -102t-120 -39h-100v-76q0 -59 30 -95.5t87 -36.5q58 0 88.5 34.5t32.5 89.5q0 5 5 5h9q5 0 5 -4q-2 -63 -38 -103t-102 -40zM77 237h100q72 0 107 33.5t35 89.5 q0 54 -34 91.5t-87 37.5q-55 0 -88 -37t-33 -96v-119z" />
<glyph unicode="f" horiz-adv-x="266" d="M234 500q5 0 5 -5v-9q0 -5 -5 -5h-120v-476q0 -5 -5 -5h-9q-5 0 -5 5v476h-71q-5 0 -5 5v9q0 5 5 5h71v57q0 70 34 107.5t97 37.5q5 0 5 -5v-8q0 -5 -5 -5q-54 0 -83 -32.5t-29 -94.5v-57h120z" />
<glyph unicode="g" horiz-adv-x="407" d="M200 507q62 0 102 -44t40 -110v-413q0 -64 -39 -107t-104 -43q-63 0 -101 40.5t-40 101.5q0 5 5 5h9q5 0 5 -5q2 -54 34.5 -89t87.5 -35q57 0 90.5 37.5t33.5 94.5v141q-16 -38 -49 -59.5t-74 -21.5q-63 0 -102.5 45t-39.5 114v194q0 66 40 110t102 44zM200 18 q54 0 88.5 39.5t34.5 101.5v194q0 58 -34.5 97t-88.5 39t-88.5 -39t-34.5 -97v-194q0 -62 34.5 -101.5t88.5 -39.5z" />
<glyph unicode="h" horiz-adv-x="425" d="M79 0q-5 0 -5 5v690q0 5 5 5h9q5 0 5 -5v-261q40 73 124 73q62 0 102.5 -43t40.5 -107v-352q0 -5 -5 -5h-9q-5 0 -5 5v352q0 56 -34.5 94t-89.5 38t-89.5 -38t-34.5 -94v-352q0 -5 -5 -5h-9z" />
<glyph unicode="i" horiz-adv-x="167" d="M84 585q-22 0 -22 22t22 22t22 -22t-22 -22zM79 0q-5 0 -5 5v490q0 5 5 5h9q5 0 5 -5v-490q0 -5 -5 -5h-9z" />
<glyph unicode="j" horiz-adv-x="236" d="M140 585q-22 0 -22 22t22 22t22 -22t-22 -22zM5 -205q-5 0 -5 5v8q0 5 5 5h2q60 2 91.5 41t31.5 101v540q0 5 5 5h9q5 0 5 -5v-540q0 -70 -37 -114t-105 -46h-2z" />
<glyph unicode="k" horiz-adv-x="392" d="M192 277q69 0 108 -37t39 -102v-133q0 -5 -5 -5h-9q-5 0 -5 5v133q0 58 -31 90t-87 32h-109v-255q0 -5 -5 -5h-9q-5 0 -5 5v690q0 5 5 5h9q5 0 5 -5v-417h78l151 219q2 3 6 3h12q7 0 3 -6z" />
<glyph unicode="l" horiz-adv-x="167" d="M79 0q-5 0 -5 5v690q0 5 5 5h9q5 0 5 -5v-690q0 -5 -5 -5h-9z" />
<glyph unicode="m" horiz-adv-x="633" d="M437 507q61 0 96 -42t35 -107v-353q0 -5 -5 -5h-9q-5 0 -5 5v353q0 57 -29.5 94t-82.5 37q-49 0 -80 -37.5t-31 -91.5v-355q0 -5 -5 -5h-9q-5 0 -5 5v355q0 54 -31 91.5t-79 37.5q-54 0 -83.5 -37t-29.5 -94v-353q0 -5 -5 -5h-9q-5 0 -5 5v353q0 65 35 107t97 42 q42 0 73.5 -24.5t46.5 -65.5q14 41 45.5 65.5t74.5 24.5z" />
<glyph unicode="n" horiz-adv-x="402" d="M70 0q-5 0 -5 5v342q0 73 35 116.5t101 43.5t101 -43.5t35 -116.5v-342q0 -5 -5 -5h-9q-5 0 -5 5v342q0 65 -29.5 103.5t-87.5 38.5t-87.5 -38.5t-29.5 -103.5v-342q0 -5 -5 -5h-9z" />
<glyph unicode="o" d="M200 -7q-65 0 -103.5 43t-38.5 109v210q0 66 38.5 109t103.5 43t103.5 -43t38.5 -109v-210q0 -66 -38.5 -109t-103.5 -43zM200 11q56 0 89.5 38t33.5 96v210q0 58 -33.5 96t-89.5 38t-89.5 -38t-33.5 -96v-210q0 -58 33.5 -96t89.5 -38z" />
<glyph unicode="p" horiz-adv-x="407" d="M207 507q60 0 101 -43.5t41 -106.5v-214q0 -63 -41 -106.5t-101 -43.5q-40 0 -73.5 22.5t-49.5 60.5v-271q0 -5 -5 -5h-9q-5 0 -5 5v552q0 63 41 106.5t101 43.5zM330 143v214q0 55 -35.5 93.5t-87.5 38.5t-87.5 -38.5t-35.5 -93.5v-214q0 -55 35.5 -93.5t87.5 -38.5 t87.5 38.5t35.5 93.5z" />
<glyph unicode="q" horiz-adv-x="407" d="M200 507q60 0 101 -43.5t41 -106.5v-552q0 -5 -5 -5h-9q-5 0 -5 5v271q-16 -38 -49.5 -60.5t-73.5 -22.5q-60 0 -101 43.5t-41 106.5v214q0 63 41 106.5t101 43.5zM200 11q52 0 87.5 38.5t35.5 93.5v214q0 55 -35.5 93.5t-87.5 38.5t-87.5 -38.5t-35.5 -93.5v-214 q0 -55 35.5 -93.5t87.5 -38.5z" />
<glyph unicode="r" horiz-adv-x="269" d="M70 0q-5 0 -5 5v340q0 69 42.5 113t107.5 44h30q5 0 5 -5v-8q0 -5 -5 -5h-30q-57 0 -94 -38.5t-37 -100.5v-340q0 -5 -5 -5h-9z" />
<glyph unicode="s" horiz-adv-x="380" d="M195 -7q-66 0 -104.5 36.5t-39.5 105.5q0 5 5 5h9q5 0 5 -5q3 -124 125 -124q48 0 81.5 29.5t33.5 77.5q0 42 -26.5 69t-64.5 41.5t-76 30.5t-64.5 47t-26.5 78q0 54 38.5 88.5t95.5 34.5q59 0 96 -34.5t38 -92.5q0 -5 -5 -5h-9q-5 0 -5 5q-1 52 -32 80.5t-83 28.5 q-49 0 -82 -29t-33 -76q0 -43 26.5 -70.5t64.5 -42.5t76 -30.5t64.5 -45.5t26.5 -77q0 -54 -39.5 -89.5t-94.5 -35.5z" />
<glyph unicode="t" horiz-adv-x="266" d="M234 16q5 0 5 -5v-8q0 -5 -5 -5h-14q-126 0 -126 148v336h-70q-5 0 -5 5v8q0 5 5 5h70v135q0 5 5 5h9q5 0 5 -5v-135h112q5 0 5 -5v-8q0 -5 -5 -5h-112v-336q0 -130 107 -130h14z" />
<glyph unicode="u" horiz-adv-x="402" d="M70 500h9q5 0 5 -5v-342q0 -65 29.5 -103.5t87.5 -38.5t87.5 38.5t29.5 103.5v342q0 5 5 5h9q5 0 5 -5v-342q0 -73 -35 -116.5t-101 -43.5t-101 43.5t-35 116.5v342q0 5 5 5z" />
<glyph unicode="v" horiz-adv-x="338" d="M300 496q2 4 5 4h9q6 0 4 -6l-133 -487q-2 -9 -11 -9h-10q-7 0 -11 9l-133 487q-2 6 4 6h9q5 0 5 -4l131 -480z" />
<glyph unicode="w" horiz-adv-x="633" d="M437 -7q-43 0 -74.5 24.5t-45.5 65.5q-15 -41 -46.5 -65.5t-73.5 -24.5q-62 0 -97 42t-35 107v353q0 5 5 5h9q5 0 5 -5v-353q0 -57 29.5 -94t83.5 -37q48 0 79 37.5t31 91.5v355q0 5 5 5h9q5 0 5 -5v-355q0 -54 31 -91.5t80 -37.5q53 0 82.5 37t29.5 94v353q0 5 5 5h9 q5 0 5 -5v-353q0 -65 -35 -107t-96 -42z" />
<glyph unicode="x" horiz-adv-x="390" d="M63 0q-5 0 -5 5v104q0 52 25 89.5t68 51.5q-43 14 -68 51.5t-25 89.5v104q0 5 5 5h10q5 0 5 -5v-104q0 -58 35 -95t82 -37q51 0 84 36.5t33 95.5v104q0 5 5 5h10q5 0 5 -5v-104q0 -52 -25 -89.5t-68 -51.5q43 -14 68 -51.5t25 -89.5v-104q0 -5 -5 -5h-10q-5 0 -5 5v104 q0 57 -35 94.5t-82 37.5q-51 0 -84 -36.5t-33 -95.5v-104q0 -5 -5 -5h-10z" />
<glyph unicode="y" horiz-adv-x="411" d="M332 500q5 0 5 -5v-555q0 -64 -37.5 -107t-98.5 -43q-60 0 -97 40.5t-39 101.5q0 5 5 5h9q5 0 5 -5q2 -54 33.5 -89t83.5 -35q54 0 85.5 37.5t31.5 94.5v137q-15 -36 -46 -56.5t-70 -20.5q-63 0 -100 43.5t-37 111.5v340q0 5 5 5h9q5 0 5 -5v-340q0 -61 32 -99t86 -38 t85 38t31 99v340q0 5 5 5h9z" />
<glyph unicode="z" horiz-adv-x="359" d="M67 18h238q5 0 5 -5v-8q0 -5 -5 -5h-246q-10 0 -10 10v7q0 8 3 13l241 452h-231q-5 0 -5 5v8q0 5 5 5h238q10 0 10 -10v-7q0 -8 -3 -13z" />
<glyph unicode="{" horiz-adv-x="269" d="M129 484q0 -40 -17.5 -76t-50.5 -54q33 -18 50.5 -54t17.5 -76v-204q0 -50 30 -84.5t75 -36.5q5 0 5 -5v-9q0 -5 -5 -5q-54 2 -89.5 42t-35.5 98v204q0 87 -68 119q-4 3 -4 6v10q0 3 4 6q68 32 68 119v196q0 58 35.5 98t89.5 42q5 0 5 -5v-9q0 -5 -5 -5q-45 -2 -75 -36.5 t-30 -84.5v-196z" />
<glyph unicode="|" horiz-adv-x="168" d="M74 795q0 5 5 5h10q5 0 5 -5v-860q0 -5 -5 -5h-10q-5 0 -5 5v860z" />
<glyph unicode="}" horiz-adv-x="279" d="M238 365q4 -3 4 -6v-10q0 -3 -4 -6q-68 -32 -68 -119v-204q0 -58 -35.5 -98t-89.5 -42q-5 0 -5 5v9q0 5 5 5q45 2 75 36.5t30 84.5v204q0 40 17.5 76t50.5 54q-33 18 -50.5 54t-17.5 76v196q0 50 -30 84.5t-75 36.5q-5 0 -5 5v9q0 5 5 5q54 -2 89.5 -42t35.5 -98v-196 q0 -87 68 -119z" />
<glyph unicode="~" d="M344 390q4 6 7 1l4 -6q2 -4 1 -7q-30 -57 -76 -57q-27 0 -80 29t-75 29q-41 0 -68 -51q-3 -7 -7 -1l-4 8q-2 3 0 6q32 55 79 55q27 0 81 -29t75 -29q40 0 63 52z" />
<glyph unicode="&#xa1;" horiz-adv-x="192" d="M96 507q22 0 22 -22t-22 -22t-22 22t22 22zM91 388h10q5 0 5 -5v-578q0 -5 -5 -5h-10q-5 0 -5 5v578q0 5 5 5z" />
<glyph unicode="&#xa2;" horiz-adv-x="390" d="M191 -85q-5 0 -5 5v74q-55 6 -91.5 49t-36.5 102v203q0 67 36.5 110t91.5 48v74q0 5 5 5h8q5 0 5 -5v-73q54 -2 92.5 -39.5t40.5 -87.5q0 -5 -5 -5h-9q-5 0 -5 5q-2 44 -37 76.5t-83 32.5q-52 0 -86.5 -38.5t-34.5 -102.5v-203q0 -56 36 -95t88 -39q49 0 84.5 36t37.5 88 q0 5 5 5h9q5 0 5 -5q-2 -59 -42 -100t-96 -42v-73q0 -5 -5 -5h-8z" />
<glyph unicode="&#xa3;" horiz-adv-x="461" d="M414 18q5 0 5 -5v-8q0 -5 -5 -5h-372q-5 0 -5 5v8q0 5 5 5q30 2 49.5 31.5t19.5 78.5v219h-69q-5 0 -5 5v8q0 5 5 5h69v177q0 69 42.5 117t105.5 48q64 0 105 -46t43 -114q0 -5 -5 -5h-10q-5 0 -5 5q-2 61 -36.5 101t-91.5 40q-55 0 -91.5 -42t-36.5 -104v-177h216 q5 0 5 -5v-8q0 -5 -5 -5h-216v-219q0 -79 -41 -110h324z" />
<glyph unicode="&#xa4;" horiz-adv-x="408" d="M204 135q-68 0 -106 46l-35 -41q-3 -5 -7 -1l-6 6q-3 3 -1 7l37 44q-24 38 -24 91v70q0 52 24 90l-37 45q-2 4 1 7l6 6q4 4 7 -1l35 -41q38 46 106 46t106 -46l35 41q3 5 7 1l6 -6q3 -3 1 -7l-37 -45q24 -38 24 -90v-70q0 -53 -24 -90l37 -45q2 -4 -1 -7l-6 -6 q-3 -3 -7 1l-34 41q-40 -46 -107 -46zM204 153q56 0 89.5 38t33.5 96v70q0 58 -33.5 96t-89.5 38t-89.5 -38t-33.5 -96v-70q0 -58 33.5 -96t89.5 -38z" />
<glyph unicode="&#xa5;" horiz-adv-x="491" d="M424 228h-172v-82h172q5 0 5 -5v-9q0 -5 -5 -5h-172v-122q0 -5 -5 -5h-10q-5 0 -5 5v122h-165q-5 0 -5 5v9q0 5 5 5h165v82h-165q-5 0 -5 5v9q0 5 5 5h105q-37 21 -58.5 59.5t-21.5 87.5v301q0 5 5 5h10q5 0 5 -5v-301q0 -64 38 -105t92 -41q55 0 92.5 41t37.5 105v301 q0 5 5 5h10q5 0 5 -5v-301q0 -49 -21.5 -87.5t-58.5 -59.5h112q5 0 5 -5v-9q0 -5 -5 -5z" />
<glyph unicode="&#xa6;" horiz-adv-x="148" d="M69 513q-5 0 -5 5v277q0 5 5 5h10q5 0 5 -5v-277q0 -5 -5 -5h-10zM69 -70q-5 0 -5 5v277q0 5 5 5h10q5 0 5 -5v-277q0 -5 -5 -5h-10z" />
<glyph unicode="&#xa7;" horiz-adv-x="385" d="M252 220q75 -40 75 -112q0 -54 -37.5 -84.5t-98.5 -30.5q-73 0 -106 41t-33 95q0 5 5 5h9q5 0 5 -5q3 -22 7 -37t15.5 -36.5t35.5 -33t59 -11.5q53 0 86.5 26.5t33.5 72.5q0 39 -26.5 65t-65 41t-76.5 30.5t-64.5 45t-26.5 74.5q0 43 21.5 73t58.5 43q-70 39 -70 110 q0 53 38 84t97 31q62 0 97.5 -33t35.5 -87q0 -3 -5 -5h-9q-5 0 -5 5q-2 15 -3.5 24.5t-9 25.5t-18.5 26t-32 18t-49 8q-54 0 -86 -26t-32 -71q0 -39 26.5 -65.5t64.5 -42t76 -31.5t64.5 -45.5t26.5 -73.5q0 -83 -84 -114zM68 368q0 -21 7.5 -38.5t17 -28.5t29 -22.5t32 -17 t37.5 -15.5t36 -15q40 7 65 33t25 67q0 22 -8 40t-19.5 29.5t-31 23t-34 17.5t-38 15.5t-34.5 14.5q-39 -9 -61.5 -36.5t-22.5 -66.5z" />
<glyph unicode="&#xa9;" horiz-adv-x="622" d="M248 -3q-82 0 -132.5 52t-50.5 138v322q0 87 50.5 140.5t132.5 53.5h127q82 0 132 -53.5t50 -140.5v-322q0 -85 -50 -137.5t-132 -52.5h-127zM248 11h127q76 0 122 48.5t46 127.5v322q0 81 -46 130.5t-122 49.5h-127q-76 0 -122.5 -49.5t-46.5 -130.5v-322 q0 -79 46.5 -127.5t122.5 -48.5zM310 142q-52 0 -84.5 34t-32.5 90v166q0 58 31.5 93.5t82.5 35.5q49 0 80.5 -28.5t33.5 -75.5q0 -4 -4 -4h-8q-4 0 -4 4q-2 40 -29 64t-69 24q-44 0 -70.5 -31t-26.5 -82v-166q0 -49 27.5 -78.5t72.5 -29.5q43 0 70.5 27.5t28.5 71.5 q0 4 4 4h8q5 0 5 -4q-2 -52 -34 -83.5t-82 -31.5z" />
<glyph unicode="&#xab;" horiz-adv-x="372" d="M155 83q-5 0 -6 3l-123 164q-5 7 0 14l123 164q1 3 6 3h11q7 0 3 -6l-126 -168l126 -168q4 -6 -3 -6h-11zM325 83q-5 0 -6 3l-123 164q-5 7 0 14l123 164q1 3 6 3h11q7 0 3 -6l-126 -168l126 -168q4 -6 -3 -6h-11z" />
<glyph unicode="&#xac;" d="M351 367q5 0 5 -5v-90q0 -5 -5 -5h-7q-5 0 -5 5v77h-290q-5 0 -5 5v8q0 5 5 5h302z" />
<glyph unicode="&#xad;" horiz-adv-x="290" d="M30 246q-5 0 -5 5v9q0 5 5 5h230q5 0 5 -5v-9q0 -5 -5 -5h-230z" />
<glyph unicode="&#xae;" horiz-adv-x="452" d="M165 264q-43 0 -74 31t-31 73v226q0 45 31 77t74 32h123q42 0 73 -32t31 -77v-226q0 -41 -31 -72.5t-73 -31.5h-123zM165 276h123q38 0 65 27t27 65v226q0 42 -26.5 69.5t-65.5 27.5h-123q-39 0 -66 -27.5t-27 -69.5v-226q0 -38 27 -65t66 -27zM165 344q-2 0 -2 2v218 q0 29 18 48t46 19t46 -19t18 -48v-29q0 -29 -17 -48.5t-40 -21.5l58 -119q2 -2 -1 -2h-9q-2 0 -2 2l-59 119h-46v-119q0 -2 -2 -2h-8zM175 476h52q23 0 37.5 16.5t14.5 42.5v29q0 25 -14.5 40.5t-37.5 15.5t-37.5 -15.5t-14.5 -40.5v-88z" />
<glyph unicode="&#xb0;" horiz-adv-x="308" d="M38 583q0 56 32 90t84 34t84 -34t32 -90t-32 -90t-84 -34t-84 34t-32 90zM56 583q0 -48 27 -77.5t71 -29.5t71.5 29.5t27.5 77.5t-27.5 77.5t-71.5 29.5t-71 -29.5t-27 -77.5z" />
<glyph unicode="&#xb1;" d="M351 385q5 0 5 -5v-8q0 -5 -5 -5h-142v-143q0 -5 -5 -5h-8q-5 0 -5 5v143h-142q-5 0 -5 5v8q0 5 5 5h142v143q0 5 5 5h8q5 0 5 -5v-143h142zM351 175q5 0 5 -5v-8q0 -5 -5 -5h-302q-5 0 -5 5v8q0 5 5 5h302z" />
<glyph unicode="&#xb6;" horiz-adv-x="456" d="M354 702q20 0 20 -20v-775q0 -5 -5 -5h-10q-5 0 -5 5v776h-172v-776q0 -5 -5 -5h-10q-5 0 -5 5v539q-65 0 -101.5 33.5t-36.5 94.5t36.5 94.5t101.5 33.5h192z" />
<glyph unicode="&#xb7;" horiz-adv-x="150" d="M55 229q-22 0 -22 22t22 22t22 -22t-22 -22z" />
<glyph unicode="&#xbb;" horiz-adv-x="372" d="M48 83h-11q-7 0 -3 6l126 168l-126 168q-4 6 3 6h11q4 0 6 -3l123 -164q5 -7 0 -14l-123 -164q-2 -3 -6 -3zM218 83h-11q-7 0 -3 6l126 168l-126 168q-4 6 3 6h11q4 0 6 -3l123 -164q5 -7 0 -14l-123 -164q-2 -3 -6 -3z" />
<glyph unicode="&#xbf;" horiz-adv-x="310" d="M158 508q22 0 22 -22t-22 -22t-22 22t22 22zM165 376q5 0 5 -5l1 -62q1 -49 -13.5 -90t-35.5 -70t-42 -57.5t-35.5 -65.5t-14.5 -80q0 -59 37 -96t93 -37t92.5 39t37.5 102q0 5 5 5h10q5 0 5 -5q-1 -69 -44 -114.5t-106 -45.5q-65 0 -107.5 43t-42.5 109q0 44 14.5 82 t35.5 66.5t41.5 58t35 69.5t14.5 87l-1 62q0 5 5 5h10z" />
<glyph unicode="&#xc0;" horiz-adv-x="453" d="M246 769h-6q-4 0 -6 3l-79 90q-4 6 3 6h13q5 0 6 -3l72 -90q4 -6 -3 -6zM77 0q-5 0 -5 5v527q0 79 42.5 127t111.5 48t111.5 -48t43.5 -127v-527q2 -5 -4 -5h-10q-4 0 -6 5v272h-269v-272q0 -5 -5 -5h-10zM92 296h269v236q0 71 -36.5 113.5t-98.5 42.5q-60 0 -97 -42.5 t-37 -113.5v-236z" />
<glyph unicode="&#xc1;" horiz-adv-x="453" d="M207 769q-7 0 -3 6l72 90q2 3 6 3h13q7 0 3 -6l-79 -90q-1 -3 -6 -3h-6zM77 0q-5 0 -5 5v527q0 79 42.5 127t111.5 48t111.5 -48t43.5 -127v-527q2 -5 -4 -5h-10q-4 0 -6 5v272h-269v-272q0 -5 -5 -5h-10zM92 296h269v236q0 71 -36.5 113.5t-98.5 42.5q-60 0 -97 -42.5 t-37 -113.5v-236z" />
<glyph unicode="&#xc2;" horiz-adv-x="453" d="M314 775q4 -6 -3 -6h-7q-4 0 -6 3l-72 84l-72 -84q-2 -3 -6 -3h-7q-7 0 -3 6l73 90q1 3 6 3h18q5 0 6 -3zM77 0q-5 0 -5 5v527q0 79 42.5 127t111.5 48t111.5 -48t43.5 -127v-527q2 -5 -4 -5h-10q-4 0 -6 5v272h-269v-272q0 -5 -5 -5h-10zM92 296h269v236 q0 71 -36.5 113.5t-98.5 42.5q-60 0 -97 -42.5t-37 -113.5v-236z" />
<glyph unicode="&#xc3;" horiz-adv-x="453" d="M182 824q-33 0 -35 -47q0 -5 -5 -5h-9q-5 0 -5 5q1 29 16.5 47t38.5 18t46.5 -26.5t39.5 -26.5q33 0 35 47q0 5 5 5h9q5 0 5 -5q-1 -29 -17 -47t-38 -18q-21 0 -45 26.5t-41 26.5zM77 0q-5 0 -5 5v527q0 79 42.5 127t111.5 48t111.5 -48t43.5 -127v-527q2 -5 -4 -5h-10 q-4 0 -6 5v272h-269v-272q0 -5 -5 -5h-10zM92 296h269v236q0 71 -36.5 113.5t-98.5 42.5q-60 0 -97 -42.5t-37 -113.5v-236z" />
<glyph unicode="&#xc4;" horiz-adv-x="453" d="M178 805q-22 0 -22 22t22 22t22 -22t-22 -22zM274 805q-22 0 -22 22t22 22t22 -22t-22 -22zM77 0q-5 0 -5 5v527q0 79 42.5 127t111.5 48t111.5 -48t43.5 -127v-527q2 -5 -4 -5h-10q-4 0 -6 5v272h-269v-272q0 -5 -5 -5h-10zM92 296h269v236q0 71 -36.5 113.5t-98.5 42.5 q-60 0 -97 -42.5t-37 -113.5v-236z" />
<glyph unicode="&#xc5;" horiz-adv-x="453" d="M163 821q0 27 17.5 43.5t45.5 16.5t45.5 -16.5t17.5 -43.5q0 -28 -17.5 -45t-45.5 -17t-45.5 17t-17.5 45zM182 820q0 -44 44 -44t44 44t-44 44t-44 -44zM77 0q-5 0 -5 5v527q0 79 42.5 127t111.5 48t111.5 -48t43.5 -127v-527q2 -5 -4 -5h-10q-4 0 -6 5v272h-269v-272 q0 -5 -5 -5h-10zM92 296h269v236q0 71 -36.5 113.5t-98.5 42.5q-60 0 -97 -42.5t-37 -113.5v-236z" />
<glyph unicode="&#xc6;" horiz-adv-x="617" d="M77 0q-5 0 -5 5v522q0 84 37 132t107 48q49 0 84.5 -28.5t50.5 -78.5q16 46 53.5 73t90.5 27h70q5 0 5 -5v-9q0 -5 -5 -5h-70q-62 0 -98.5 -40.5t-36.5 -105.5v-189h185q5 0 5 -5v-9q0 -5 -5 -5h-185v-162q0 -65 36.5 -105.5t98.5 -40.5h70q5 0 5 -5v-9q0 -5 -5 -5h-70 q-71 0 -113 46t-42 119v162h-248v-322q0 -5 -5 -5h-10zM92 346h248v186q0 71 -33.5 113.5t-90.5 42.5q-61 0 -92.5 -42.5t-31.5 -118.5v-181z" />
<glyph unicode="&#xc7;" horiz-adv-x="420" d="M378 152q-2 -67 -44.5 -112.5t-108.5 -46.5l-10 -54q10 3 26 3q31 0 50 -18.5t19 -48.5q0 -31 -21.5 -49.5t-57.5 -18.5q-34 0 -56 18t-24 48q0 5 5 5h8q5 0 5 -5q2 -21 19 -34t43 -13q27 0 43.5 13t16.5 36q0 22 -14 36.5t-35 14.5q-16 0 -39 -7q-3 -1 -5 1l-1 1 q-2 2 -2 5l13 67q-64 5 -105 51.5t-41 113.5v384q0 70 45 117.5t113 47.5q66 0 108.5 -46t44.5 -114q0 -5 -5 -5h-10q-5 0 -5 5q-2 61 -38 101t-95 40t-98.5 -42t-39.5 -104v-384q0 -63 39.5 -104.5t98.5 -41.5q61 0 98.5 39.5t39.5 101.5q0 5 5 5h10q5 0 5 -6z" />
<glyph unicode="&#xc8;" horiz-adv-x="359" d="M229 769h-6q-5 0 -6 3l-79 90q-4 6 3 6h13q4 0 6 -3l72 -90q4 -6 -3 -6zM217 -2q-71 0 -113 46t-42 119v374q0 73 42 119t113 46h90q5 0 5 -5v-9q0 -5 -5 -5h-90q-62 0 -98.5 -40.5t-36.5 -105.5v-171h205q5 0 5 -5v-9q0 -5 -5 -5h-205v-184q0 -65 36.5 -105.5 t98.5 -40.5h90q5 0 5 -5v-9q0 -5 -5 -5h-90z" />
<glyph unicode="&#xc9;" horiz-adv-x="359" d="M190 769q-7 0 -3 6l72 90q1 3 6 3h13q8 0 3 -6l-79 -90q-2 -3 -6 -3h-6zM217 -2q-71 0 -113 46t-42 119v374q0 73 42 119t113 46h90q5 0 5 -5v-9q0 -5 -5 -5h-90q-62 0 -98.5 -40.5t-36.5 -105.5v-171h205q5 0 5 -5v-9q0 -5 -5 -5h-205v-184q0 -65 36.5 -105.5 t98.5 -40.5h90q5 0 5 -5v-9q0 -5 -5 -5h-90z" />
<glyph unicode="&#xca;" horiz-adv-x="359" d="M297 775q4 -6 -3 -6h-7q-5 0 -6 3l-72 84l-72 -84q-1 -3 -6 -3h-7q-7 0 -3 6l73 90q2 3 6 3h18q4 0 6 -3zM217 -2q-71 0 -113 46t-42 119v374q0 73 42 119t113 46h90q5 0 5 -5v-9q0 -5 -5 -5h-90q-62 0 -98.5 -40.5t-36.5 -105.5v-171h205q5 0 5 -5v-9q0 -5 -5 -5h-205 v-184q0 -65 36.5 -105.5t98.5 -40.5h90q5 0 5 -5v-9q0 -5 -5 -5h-90z" />
<glyph unicode="&#xcb;" horiz-adv-x="359" d="M161 805q-22 0 -22 22t22 22t22 -22t-22 -22zM257 805q-22 0 -22 22t22 22t22 -22t-22 -22zM217 -2q-71 0 -113 46t-42 119v374q0 73 42 119t113 46h90q5 0 5 -5v-9q0 -5 -5 -5h-90q-62 0 -98.5 -40.5t-36.5 -105.5v-171h205q5 0 5 -5v-9q0 -5 -5 -5h-205v-184 q0 -65 36.5 -105.5t98.5 -40.5h90q5 0 5 -5v-9q0 -5 -5 -5h-90z" />
<glyph unicode="&#xcc;" horiz-adv-x="184" d="M112 769h-6q-4 0 -6 3l-79 90q-5 6 3 6h13q5 0 6 -3l72 -90q4 -6 -3 -6zM82 695q0 5 5 5h10q5 0 5 -5v-690q0 -5 -5 -5h-10q-5 0 -5 5v690z" />
<glyph unicode="&#xcd;" horiz-adv-x="184" d="M73 769q-7 0 -3 6l72 90q2 3 6 3h13q7 0 3 -6l-79 -90q-1 -3 -6 -3h-6zM82 695q0 5 5 5h10q5 0 5 -5v-690q0 -5 -5 -5h-10q-5 0 -5 5v690z" />
<glyph unicode="&#xce;" horiz-adv-x="184" d="M180 775q4 -6 -3 -6h-7q-4 0 -6 3l-72 84l-72 -84q-2 -3 -6 -3h-7q-7 0 -3 6l73 90q1 3 6 3h18q5 0 6 -3zM82 695q0 5 5 5h10q5 0 5 -5v-690q0 -5 -5 -5h-10q-5 0 -5 5v690z" />
<glyph unicode="&#xcf;" horiz-adv-x="184" d="M44 805q-22 0 -22 22t22 22t22 -22t-22 -22zM140 805q-22 0 -22 22t22 22t22 -22t-22 -22zM82 695q0 5 5 5h10q5 0 5 -5v-690q0 -5 -5 -5h-10q-5 0 -5 5v690z" />
<glyph unicode="&#xd0;" horiz-adv-x="488" d="M268 702q69 0 113.5 -43t44.5 -108v-388q0 -69 -44.5 -117t-113.5 -48h-131q-10 0 -10 10v339h-65q-5 0 -5 5v9q0 5 5 5h65v326q0 10 10 10h131zM406 163v388q0 57 -38.5 94.5t-99.5 37.5h-121v-317h95q5 0 5 -5v-9q0 -5 -5 -5h-95v-330h121q60 0 99 42.5t39 103.5z" />
<glyph unicode="&#xd1;" horiz-adv-x="452" d="M182 824q-33 0 -35 -47q0 -5 -5 -5h-9q-5 0 -5 5q1 29 16.5 47t38.5 18t46.5 -26.5t39.5 -26.5q33 0 35 47q0 5 5 5h9q5 0 5 -5q-1 -29 -17 -47t-38 -18q-21 0 -45 26.5t-41 26.5zM77 0q-5 0 -5 5v527q0 79 42.5 127t111.5 48t111.5 -48t42.5 -127v-527q0 -5 -5 -5h-10 q-5 0 -5 5v527q0 72 -36.5 114t-97.5 42t-97.5 -42t-36.5 -114v-527q0 -5 -5 -5h-10z" />
<glyph unicode="&#xd2;" horiz-adv-x="446" d="M243 769h-6q-5 0 -6 3l-79 90q-4 6 3 6h13q4 0 6 -3l72 -90q4 -6 -3 -6zM223 -7q-74 0 -117.5 49t-43.5 135v345q0 87 43.5 136t117.5 49t117.5 -49t43.5 -136v-345q0 -86 -43.5 -135t-117.5 -49zM223 12q65 0 103 43.5t38 121.5v345q0 79 -38 122.5t-103 43.5 t-103 -43.5t-38 -122.5v-345q0 -78 38 -121.5t103 -43.5z" />
<glyph unicode="&#xd3;" horiz-adv-x="446" d="M204 769q-7 0 -3 6l72 90q1 3 6 3h13q8 0 3 -6l-79 -90q-2 -3 -6 -3h-6zM223 -7q-74 0 -117.5 49t-43.5 135v345q0 87 43.5 136t117.5 49t117.5 -49t43.5 -136v-345q0 -86 -43.5 -135t-117.5 -49zM223 12q65 0 103 43.5t38 121.5v345q0 79 -38 122.5t-103 43.5 t-103 -43.5t-38 -122.5v-345q0 -78 38 -121.5t103 -43.5z" />
<glyph unicode="&#xd4;" horiz-adv-x="446" d="M311 775q4 -6 -3 -6h-7q-5 0 -6 3l-72 84l-72 -84q-1 -3 -6 -3h-7q-7 0 -3 6l73 90q2 3 6 3h18q4 0 6 -3zM223 -7q-74 0 -117.5 49t-43.5 135v345q0 87 43.5 136t117.5 49t117.5 -49t43.5 -136v-345q0 -86 -43.5 -135t-117.5 -49zM223 12q65 0 103 43.5t38 121.5v345 q0 79 -38 122.5t-103 43.5t-103 -43.5t-38 -122.5v-345q0 -78 38 -121.5t103 -43.5z" />
<glyph unicode="&#xd5;" horiz-adv-x="446" d="M179 824q-33 0 -35 -47q0 -5 -5 -5h-9q-5 0 -5 5q1 29 16.5 47t38.5 18t46.5 -26.5t39.5 -26.5q33 0 35 47q0 5 5 5h9q5 0 5 -5q-1 -29 -17 -47t-38 -18q-21 0 -45 26.5t-41 26.5zM223 -7q-74 0 -117.5 49t-43.5 135v345q0 87 43.5 136t117.5 49t117.5 -49t43.5 -136 v-345q0 -86 -43.5 -135t-117.5 -49zM223 12q65 0 103 43.5t38 121.5v345q0 79 -38 122.5t-103 43.5t-103 -43.5t-38 -122.5v-345q0 -78 38 -121.5t103 -43.5z" />
<glyph unicode="&#xd6;" horiz-adv-x="446" d="M175 805q-22 0 -22 22t22 22t22 -22t-22 -22zM271 805q-22 0 -22 22t22 22t22 -22t-22 -22zM223 -7q-74 0 -117.5 49t-43.5 135v345q0 87 43.5 136t117.5 49t117.5 -49t43.5 -136v-345q0 -86 -43.5 -135t-117.5 -49zM223 12q65 0 103 43.5t38 121.5v345q0 79 -38 122.5 t-103 43.5t-103 -43.5t-38 -122.5v-345q0 -78 38 -121.5t103 -43.5z" />
<glyph unicode="&#xd7;" d="M57 210l-5 5q-5 3 0 7l136 136l-136 136q-5 4 0 7l5 5q3 5 7 0l136 -136l136 136q4 5 7 0l5 -5q5 -3 0 -7l-136 -136l136 -136q5 -4 0 -7l-5 -5q-3 -5 -7 0l-136 136l-136 -136q-4 -5 -7 0z" />
<glyph unicode="&#xd8;" horiz-adv-x="446" d="M89 -45q-5 0 -4 6l22 79q-45 50 -45 137v345q0 87 43.5 136t117.5 49q36 0 66 -12l13 46q2 4 5 4h9q6 0 4 -6l-14 -52q78 -46 78 -165v-345q0 -86 -43.5 -135t-117.5 -49q-60 0 -101 33l-19 -67q-2 -4 -5 -4h-9zM113 64l171 612q-27 12 -61 12q-65 0 -103 -43.5 t-38 -122.5v-345q0 -70 31 -113zM223 12q65 0 103 43.5t38 121.5v345q0 104 -64 145l-172 -620q37 -35 95 -35z" />
<glyph unicode="&#xd9;" horiz-adv-x="452" d="M245 769h-6q-5 0 -6 3l-79 90q-5 6 3 6h13q4 0 6 -3l72 -90q4 -6 -3 -6zM77 700h10q5 0 5 -5v-527q0 -72 36.5 -114t97.5 -42t97.5 42t36.5 114v527q0 5 5 5h10q5 0 5 -5v-527q0 -79 -42.5 -127t-111.5 -48t-111.5 48t-42.5 127v527q0 5 5 5z" />
<glyph unicode="&#xda;" horiz-adv-x="452" d="M206 769q-7 0 -3 6l72 90q1 3 6 3h13q8 0 3 -6l-79 -90q-2 -3 -6 -3h-6zM77 700h10q5 0 5 -5v-527q0 -72 36.5 -114t97.5 -42t97.5 42t36.5 114v527q0 5 5 5h10q5 0 5 -5v-527q0 -79 -42.5 -127t-111.5 -48t-111.5 48t-42.5 127v527q0 5 5 5z" />
<glyph unicode="&#xdb;" horiz-adv-x="452" d="M313 775q4 -6 -3 -6h-7q-5 0 -6 3l-72 84l-72 -84q-1 -3 -6 -3h-7q-7 0 -3 6l73 90q2 3 6 3h18q4 0 6 -3zM77 700h10q5 0 5 -5v-527q0 -72 36.5 -114t97.5 -42t97.5 42t36.5 114v527q0 5 5 5h10q5 0 5 -5v-527q0 -79 -42.5 -127t-111.5 -48t-111.5 48t-42.5 127v527 q0 5 5 5z" />
<glyph unicode="&#xdc;" horiz-adv-x="452" d="M177 805q-22 0 -22 22t22 22t22 -22t-22 -22zM273 805q-22 0 -22 22t22 22t22 -22t-22 -22zM77 700h10q5 0 5 -5v-527q0 -72 36.5 -114t97.5 -42t97.5 42t36.5 114v527q0 5 5 5h10q5 0 5 -5v-527q0 -79 -42.5 -127t-111.5 -48t-111.5 48t-42.5 127v527q0 5 5 5z" />
<glyph unicode="&#xdd;" horiz-adv-x="414" d="M188 769q-7 0 -3 6l72 90q1 3 6 3h13q8 0 3 -6l-79 -90q-2 -3 -6 -3h-6zM202 0q-5 0 -5 5v224q-59 5 -99.5 51t-40.5 114v301q0 5 5 5h10q5 0 5 -5v-301q0 -64 38 -105t92 -41q55 0 92.5 41t37.5 105v301q0 5 5 5h10q5 0 5 -5v-301q0 -68 -40.5 -114t-99.5 -51v-224 q0 -5 -5 -5h-10z" />
<glyph unicode="&#xde;" horiz-adv-x="421" d="M87 0q-5 0 -5 5v692q0 5 5 5h10q5 0 5 -5v-145h127q61 0 104 -47.5t43 -117.5v-72q0 -70 -43 -117.5t-104 -47.5h-127v-145q0 -5 -5 -5h-10zM102 169h127q53 0 90 41t37 105v72q0 64 -37 105t-90 41h-127v-364z" />
<glyph unicode="&#xdf;" horiz-adv-x="384" d="M77 0q-5 0 -5 5v558q0 68 32 106t88 38q59 0 91.5 -38t32.5 -106v-71q0 -50 -24.5 -82t-68.5 -39q53 -14 82 -52.5t29 -98.5v-85q0 -62 -32 -98.5t-88 -36.5h-89q-5 0 -5 5v9q0 5 5 5h89q47 0 73.5 31.5t26.5 84.5v85q0 68 -36.5 104.5t-103.5 36.5h-49q-5 0 -5 5v8 q0 5 5 5h49q58 0 90.5 30t32.5 83v71q0 59 -27.5 92t-77.5 33q-47 0 -74 -33t-27 -92v-558q0 -5 -5 -5h-9z" />
<glyph unicode="&#xe0;" horiz-adv-x="392" d="M131 666h12q5 0 6 -3l63 -98q3 -6 -3 -6h-7q-4 0 -6 3l-68 98q-4 6 3 6zM200 -7q-71 0 -110 40.5t-39 114.5q0 66 40.5 103t117.5 37h106v68q0 63 -30.5 98t-84.5 35q-55 0 -87 -30.5t-35 -78.5q0 -5 -5 -5h-9q-5 0 -5 5q3 56 40 91.5t101 35.5q62 0 98 -40t36 -111v-208 q0 -72 -35 -113.5t-99 -41.5zM200 11q55 0 85 36.5t30 100.5v122h-106q-68 0 -103.5 -32t-35.5 -90q0 -65 34 -101t96 -36z" />
<glyph unicode="&#xe1;" horiz-adv-x="392" d="M255 666q7 0 3 -6l-68 -98q-2 -3 -6 -3h-7q-6 0 -3 6l63 98q1 3 6 3h12zM200 -7q-71 0 -110 40.5t-39 114.5q0 66 40.5 103t117.5 37h106v68q0 63 -30.5 98t-84.5 35q-55 0 -87 -30.5t-35 -78.5q0 -5 -5 -5h-9q-5 0 -5 5q3 56 40 91.5t101 35.5q62 0 98 -40t36 -111v-208 q0 -72 -35 -113.5t-99 -41.5zM200 11q55 0 85 36.5t30 100.5v122h-106q-68 0 -103.5 -32t-35.5 -90q0 -65 34 -101t96 -36z" />
<glyph unicode="&#xe2;" horiz-adv-x="392" d="M112 559q-7 0 -3 6l74 98q1 3 6 3h16q5 0 6 -3l74 -98q4 -6 -3 -6h-8q-4 0 -6 3l-71 90l-71 -90q-2 -3 -6 -3h-8zM200 -7q-71 0 -110 40.5t-39 114.5q0 66 40.5 103t117.5 37h106v68q0 63 -30.5 98t-84.5 35q-55 0 -87 -30.5t-35 -78.5q0 -5 -5 -5h-9q-5 0 -5 5 q3 56 40 91.5t101 35.5q62 0 98 -40t36 -111v-208q0 -72 -35 -113.5t-99 -41.5zM200 11q55 0 85 36.5t30 100.5v122h-106q-68 0 -103.5 -32t-35.5 -90q0 -65 34 -101t96 -36z" />
<glyph unicode="&#xe3;" horiz-adv-x="392" d="M153 634q-33 0 -35 -47q0 -5 -5 -5h-9q-5 0 -5 5q1 29 16.5 47t38.5 18t46.5 -26.5t39.5 -26.5q33 0 35 47q0 5 5 5h9q5 0 5 -5q-1 -29 -17 -47t-38 -18q-21 0 -45 26.5t-41 26.5zM200 -7q-71 0 -110 40.5t-39 114.5q0 66 40.5 103t117.5 37h106v68q0 63 -30.5 98 t-84.5 35q-55 0 -87 -30.5t-35 -78.5q0 -5 -5 -5h-9q-5 0 -5 5q3 56 40 91.5t101 35.5q62 0 98 -40t36 -111v-208q0 -72 -35 -113.5t-99 -41.5zM200 11q55 0 85 36.5t30 100.5v122h-106q-68 0 -103.5 -32t-35.5 -90q0 -65 34 -101t96 -36z" />
<glyph unicode="&#xe4;" horiz-adv-x="392" d="M149 585q-22 0 -22 22t22 22t22 -22t-22 -22zM245 585q-22 0 -22 22t22 22t22 -22t-22 -22zM200 -7q-71 0 -110 40.5t-39 114.5q0 66 40.5 103t117.5 37h106v68q0 63 -30.5 98t-84.5 35q-55 0 -87 -30.5t-35 -78.5q0 -5 -5 -5h-9q-5 0 -5 5q3 56 40 91.5t101 35.5 q62 0 98 -40t36 -111v-208q0 -72 -35 -113.5t-99 -41.5zM200 11q55 0 85 36.5t30 100.5v122h-106q-68 0 -103.5 -32t-35.5 -90q0 -65 34 -101t96 -36z" />
<glyph unicode="&#xe5;" horiz-adv-x="392" d="M134 614q0 27 17.5 43.5t45.5 16.5t45.5 -16.5t17.5 -43.5q0 -28 -17.5 -45t-45.5 -17t-45.5 17t-17.5 45zM153 613q0 -44 44 -44t44 44t-44 44t-44 -44zM200 -7q-71 0 -110 40.5t-39 114.5q0 66 40.5 103t117.5 37h106v68q0 63 -30.5 98t-84.5 35q-55 0 -87 -30.5 t-35 -78.5q0 -5 -5 -5h-9q-5 0 -5 5q3 56 40 91.5t101 35.5q62 0 98 -40t36 -111v-208q0 -72 -35 -113.5t-99 -41.5zM200 11q55 0 85 36.5t30 100.5v122h-106q-68 0 -103.5 -32t-35.5 -90q0 -65 34 -101t96 -36z" />
<glyph unicode="&#xe6;" horiz-adv-x="643" d="M197 -7q-69 0 -107.5 38.5t-38.5 105.5q0 64 38.5 97.5t112.5 33.5h110v88q0 63 -31 98t-87 35q-53 0 -83.5 -28.5t-33.5 -80.5q0 -5 -5 -5h-9q-5 0 -5 5q3 60 39 93.5t97 33.5q100 0 128 -89q15 41 49 65t81 24q61 0 100.5 -40.5t39.5 -99.5q0 -53 -41 -85t-120 -32 h-100v-107q0 -59 30 -95.5t87 -36.5q58 0 88.5 34.5t32.5 89.5q0 5 5 5h9q5 0 5 -4q-2 -63 -38 -103t-102 -40q-97 0 -127 88q-29 -88 -124 -88zM331 268h100q72 0 107 27t35 72q0 51 -34 86.5t-87 35.5q-55 0 -88 -37t-33 -96v-88zM197 11q55 0 85 36.5t30 100.5v102h-110 q-132 0 -132 -113q0 -58 33.5 -92t93.5 -34z" />
<glyph unicode="&#xe7;" horiz-adv-x="390" d="M342 135q-2 -61 -38 -99.5t-93 -42.5l-10 -54q10 3 26 3q31 0 50 -18.5t19 -48.5q0 -31 -21.5 -49.5t-57.5 -18.5q-34 0 -56 18t-24 48q0 5 5 5h8q5 0 5 -5q2 -21 19 -34t43 -13q27 0 43.5 13t16.5 36q0 22 -14 36.5t-35 14.5q-16 0 -39 -7q-3 -1 -5 1l-1 1q-2 2 -2 5 l13 67q-62 3 -99 44.5t-37 107.5v203q0 71 38.5 115t101.5 44q60 0 98.5 -35t40.5 -92q0 -5 -5 -5h-9q-5 0 -5 5q-2 49 -35 79t-85 30q-55 0 -88 -38.5t-33 -102.5v-203q0 -60 34 -97t90 -37q52 0 86 34t36 90q0 5 5 5h9q5 0 5 -5z" />
<glyph unicode="&#xe8;" horiz-adv-x="389" d="M130 666h12q4 0 6 -3l63 -98q3 -6 -3 -6h-7q-5 0 -6 3l-68 98q-4 6 3 6zM194 -7q-66 0 -101 42t-35 108v213q0 66 38.5 108.5t101.5 42.5q61 0 100.5 -42.5t39.5 -104.5q0 -63 -41 -102t-120 -39h-100v-76q0 -59 30 -95.5t87 -36.5q58 0 88.5 34.5t32.5 89.5q0 5 5 5h9 q5 0 5 -4q-2 -63 -38 -103t-102 -40zM77 237h100q72 0 107 33.5t35 89.5q0 54 -34 91.5t-87 37.5q-55 0 -88 -37t-33 -96v-119z" />
<glyph unicode="&#xe9;" horiz-adv-x="389" d="M254 666q7 0 3 -6l-68 -98q-1 -3 -6 -3h-7q-6 0 -3 6l63 98q2 3 6 3h12zM194 -7q-66 0 -101 42t-35 108v213q0 66 38.5 108.5t101.5 42.5q61 0 100.5 -42.5t39.5 -104.5q0 -63 -41 -102t-120 -39h-100v-76q0 -59 30 -95.5t87 -36.5q58 0 88.5 34.5t32.5 89.5q0 5 5 5h9 q5 0 5 -4q-2 -63 -38 -103t-102 -40zM77 237h100q72 0 107 33.5t35 89.5q0 54 -34 91.5t-87 37.5q-55 0 -88 -37t-33 -96v-119z" />
<glyph unicode="&#xea;" horiz-adv-x="389" d="M111 559q-7 0 -3 6l74 98q2 3 6 3h16q4 0 6 -3l74 -98q4 -6 -3 -6h-8q-5 0 -6 3l-71 90l-71 -90q-1 -3 -6 -3h-8zM194 -7q-66 0 -101 42t-35 108v213q0 66 38.5 108.5t101.5 42.5q61 0 100.5 -42.5t39.5 -104.5q0 -63 -41 -102t-120 -39h-100v-76q0 -59 30 -95.5 t87 -36.5q58 0 88.5 34.5t32.5 89.5q0 5 5 5h9q5 0 5 -4q-2 -63 -38 -103t-102 -40zM77 237h100q72 0 107 33.5t35 89.5q0 54 -34 91.5t-87 37.5q-55 0 -88 -37t-33 -96v-119z" />
<glyph unicode="&#xeb;" horiz-adv-x="389" d="M148 585q-22 0 -22 22t22 22t22 -22t-22 -22zM244 585q-22 0 -22 22t22 22t22 -22t-22 -22zM194 -7q-66 0 -101 42t-35 108v213q0 66 38.5 108.5t101.5 42.5q61 0 100.5 -42.5t39.5 -104.5q0 -63 -41 -102t-120 -39h-100v-76q0 -59 30 -95.5t87 -36.5q58 0 88.5 34.5 t32.5 89.5q0 5 5 5h9q5 0 5 -4q-2 -63 -38 -103t-102 -40zM77 237h100q72 0 107 33.5t35 89.5q0 54 -34 91.5t-87 37.5q-55 0 -88 -37t-33 -96v-119z" />
<glyph unicode="&#xec;" horiz-adv-x="167" d="M18 666h12q4 0 6 -3l63 -98q3 -6 -3 -6h-7q-5 0 -6 3l-68 98q-4 6 3 6zM79 0q-5 0 -5 5v490q0 5 5 5h9q5 0 5 -5v-490q0 -5 -5 -5h-9z" />
<glyph unicode="&#xed;" horiz-adv-x="167" d="M142 666q7 0 3 -6l-68 -98q-1 -3 -6 -3h-7q-6 0 -3 6l63 98q2 3 6 3h12zM79 0q-5 0 -5 5v490q0 5 5 5h9q5 0 5 -5v-490q0 -5 -5 -5h-9z" />
<glyph unicode="&#xee;" horiz-adv-x="176" d="M7 559q-7 0 -3 6l74 98q2 3 6 3h16q4 0 6 -3l74 -98q4 -6 -3 -6h-8q-5 0 -6 3l-71 90l-71 -90q-1 -3 -6 -3h-8zM87 0q-5 0 -5 5v490q0 5 5 5h9q5 0 5 -5v-490q0 -5 -5 -5h-9z" />
<glyph unicode="&#xef;" horiz-adv-x="156" d="M42 585q-22 0 -22 22t22 22t22 -22t-22 -22zM114 585q-22 0 -22 22t22 22t22 -22t-22 -22zM77 0q-5 0 -5 5v490q0 5 5 5h9q5 0 5 -5v-490q0 -5 -5 -5h-9z" />
<glyph unicode="&#xf0;" horiz-adv-x="424" d="M302 653q48 -54 48 -181v-329q0 -62 -42.5 -106t-103.5 -44t-103.5 44t-42.5 106v214q0 62 42.5 106t103.5 44q39 0 72.5 -23t54.5 -58v46q0 122 -45 171l-120 -73q-6 -4 -6 3v10q0 4 3 6l109 67q-42 33 -128 33h-25q-5 0 -5 5v8q0 5 5 5h25q98 0 145 -41l54 33q6 4 6 -3 v-10q0 -4 -3 -6zM331 143v214q0 55 -37 93.5t-90 38.5t-90 -38.5t-37 -93.5v-214q0 -55 37 -93.5t90 -38.5t90 38.5t37 93.5z" />
<glyph unicode="&#xf1;" horiz-adv-x="402" d="M157 634q-33 0 -35 -47q0 -5 -5 -5h-9q-5 0 -5 5q1 29 16.5 47t38.5 18t46.5 -26.5t39.5 -26.5q33 0 35 47q0 5 5 5h9q5 0 5 -5q-1 -29 -17 -47t-38 -18q-21 0 -45 26.5t-41 26.5zM70 0q-5 0 -5 5v342q0 73 35 116.5t101 43.5t101 -43.5t35 -116.5v-342q0 -5 -5 -5h-9 q-5 0 -5 5v342q0 65 -29.5 103.5t-87.5 38.5t-87.5 -38.5t-29.5 -103.5v-342q0 -5 -5 -5h-9z" />
<glyph unicode="&#xf2;" d="M134 666h12q4 0 6 -3l63 -98q3 -6 -3 -6h-7q-5 0 -6 3l-68 98q-4 6 3 6zM200 -7q-65 0 -103.5 43t-38.5 109v210q0 66 38.5 109t103.5 43t103.5 -43t38.5 -109v-210q0 -66 -38.5 -109t-103.5 -43zM200 11q56 0 89.5 38t33.5 96v210q0 58 -33.5 96t-89.5 38t-89.5 -38 t-33.5 -96v-210q0 -58 33.5 -96t89.5 -38z" />
<glyph unicode="&#xf3;" d="M258 666q7 0 3 -6l-68 -98q-1 -3 -6 -3h-7q-6 0 -3 6l63 98q2 3 6 3h12zM200 -7q-65 0 -103.5 43t-38.5 109v210q0 66 38.5 109t103.5 43t103.5 -43t38.5 -109v-210q0 -66 -38.5 -109t-103.5 -43zM200 11q56 0 89.5 38t33.5 96v210q0 58 -33.5 96t-89.5 38t-89.5 -38 t-33.5 -96v-210q0 -58 33.5 -96t89.5 -38z" />
<glyph unicode="&#xf4;" d="M115 559q-7 0 -3 6l74 98q2 3 6 3h16q4 0 6 -3l74 -98q4 -6 -3 -6h-8q-5 0 -6 3l-71 90l-71 -90q-1 -3 -6 -3h-8zM200 -7q-65 0 -103.5 43t-38.5 109v210q0 66 38.5 109t103.5 43t103.5 -43t38.5 -109v-210q0 -66 -38.5 -109t-103.5 -43zM200 11q56 0 89.5 38t33.5 96 v210q0 58 -33.5 96t-89.5 38t-89.5 -38t-33.5 -96v-210q0 -58 33.5 -96t89.5 -38z" />
<glyph unicode="&#xf5;" d="M156 634q-33 0 -35 -47q0 -5 -5 -5h-9q-5 0 -5 5q1 29 16.5 47t38.5 18t46.5 -26.5t39.5 -26.5q33 0 35 47q0 5 5 5h9q5 0 5 -5q-1 -29 -17 -47t-38 -18q-21 0 -45 26.5t-41 26.5zM200 -7q-65 0 -103.5 43t-38.5 109v210q0 66 38.5 109t103.5 43t103.5 -43t38.5 -109 v-210q0 -66 -38.5 -109t-103.5 -43zM200 11q56 0 89.5 38t33.5 96v210q0 58 -33.5 96t-89.5 38t-89.5 -38t-33.5 -96v-210q0 -58 33.5 -96t89.5 -38z" />
<glyph unicode="&#xf6;" d="M152 585q-22 0 -22 22t22 22t22 -22t-22 -22zM248 585q-22 0 -22 22t22 22t22 -22t-22 -22zM200 -7q-65 0 -103.5 43t-38.5 109v210q0 66 38.5 109t103.5 43t103.5 -43t38.5 -109v-210q0 -66 -38.5 -109t-103.5 -43zM200 11q56 0 89.5 38t33.5 96v210q0 58 -33.5 96 t-89.5 38t-89.5 -38t-33.5 -96v-210q0 -58 33.5 -96t89.5 -38z" />
<glyph unicode="&#xf7;" d="M200 459q-10 0 -17.5 7.5t-7.5 17.5t7.5 17.5t17.5 7.5t17.5 -7.5t7.5 -17.5t-7.5 -17.5t-17.5 -7.5zM49 350q-5 0 -5 5v8q0 5 5 5h302q5 0 5 -5v-8q0 -5 -5 -5h-302zM200 209q-10 0 -17.5 7.5t-7.5 17.5t7.5 17.5t17.5 7.5t17.5 -7.5t7.5 -17.5t-7.5 -17.5t-17.5 -7.5z " />
<glyph unicode="&#xf8;" d="M257 496q40 -16 62.5 -53.5t22.5 -87.5v-210q0 -66 -38.5 -109t-103.5 -43q-46 0 -77 21l-15 -55q-2 -4 -5 -4h-9q-6 0 -4 6l18 64q-50 42 -50 120v210q0 66 38.5 109t103.5 43q20 0 40 -5l11 39q2 4 5 4h9q5 0 4 -6zM77 145q0 -62 37 -99l121 438q-18 5 -35 5 q-56 0 -89.5 -38t-33.5 -96v-210zM323 145v210q0 42 -19 75t-52 48l-124 -445q31 -22 72 -22q56 0 89.5 38t33.5 96z" />
<glyph unicode="&#xf9;" horiz-adv-x="402" d="M135 666h12q5 0 6 -3l63 -98q3 -6 -3 -6h-7q-4 0 -6 3l-68 98q-4 6 3 6zM70 500h9q5 0 5 -5v-342q0 -65 29.5 -103.5t87.5 -38.5t87.5 38.5t29.5 103.5v342q0 5 5 5h9q5 0 5 -5v-342q0 -73 -35 -116.5t-101 -43.5t-101 43.5t-35 116.5v342q0 5 5 5z" />
<glyph unicode="&#xfa;" horiz-adv-x="402" d="M259 666q7 0 3 -6l-68 -98q-2 -3 -6 -3h-7q-6 0 -3 6l63 98q1 3 6 3h12zM70 500h9q5 0 5 -5v-342q0 -65 29.5 -103.5t87.5 -38.5t87.5 38.5t29.5 103.5v342q0 5 5 5h9q5 0 5 -5v-342q0 -73 -35 -116.5t-101 -43.5t-101 43.5t-35 116.5v342q0 5 5 5z" />
<glyph unicode="&#xfb;" horiz-adv-x="402" d="M116 559q-7 0 -3 6l74 98q1 3 6 3h16q5 0 6 -3l74 -98q4 -6 -3 -6h-8q-4 0 -6 3l-71 90l-71 -90q-2 -3 -6 -3h-8zM70 500h9q5 0 5 -5v-342q0 -65 29.5 -103.5t87.5 -38.5t87.5 38.5t29.5 103.5v342q0 5 5 5h9q5 0 5 -5v-342q0 -73 -35 -116.5t-101 -43.5t-101 43.5 t-35 116.5v342q0 5 5 5z" />
<glyph unicode="&#xfc;" horiz-adv-x="402" d="M153 585q-22 0 -22 22t22 22t22 -22t-22 -22zM249 585q-22 0 -22 22t22 22t22 -22t-22 -22zM70 500h9q5 0 5 -5v-342q0 -65 29.5 -103.5t87.5 -38.5t87.5 38.5t29.5 103.5v342q0 5 5 5h9q5 0 5 -5v-342q0 -73 -35 -116.5t-101 -43.5t-101 43.5t-35 116.5v342q0 5 5 5z " />
<glyph unicode="&#xfd;" horiz-adv-x="411" d="M184 559q-6 0 -3 6l63 98q2 3 6 3h12q7 0 3 -6l-68 -98q-1 -3 -6 -3h-7zM332 500q5 0 5 -5v-555q0 -64 -37.5 -107t-98.5 -43q-60 0 -97 40.5t-39 101.5q0 5 5 5h9q5 0 5 -5q2 -54 33.5 -89t83.5 -35q54 0 85.5 37.5t31.5 94.5v137q-15 -36 -46 -56.5t-70 -20.5 q-63 0 -100 43.5t-37 111.5v340q0 5 5 5h9q5 0 5 -5v-340q0 -61 32 -99t86 -38t85 38t31 99v340q0 5 5 5h9z" />
<glyph unicode="&#xfe;" horiz-adv-x="424" d="M79 -200q-5 0 -5 5v890q0 5 5 5h9q5 0 5 -5v-264q19 35 52.5 55.5t74.5 20.5q61 0 103.5 -44t42.5 -106v-214q0 -62 -42.5 -106t-103.5 -44q-41 0 -74.5 20.5t-52.5 55.5v-264q0 -5 -5 -5h-9zM220 11q53 0 90 38.5t37 93.5v214q0 55 -37 93.5t-90 38.5t-90 -38.5 t-37 -93.5v-214q0 -55 37 -93.5t90 -38.5z" />
<glyph unicode="&#xff;" horiz-adv-x="411" d="M156 585q-22 0 -22 22t22 22t22 -22t-22 -22zM252 585q-22 0 -22 22t22 22t22 -22t-22 -22zM332 500q5 0 5 -5v-555q0 -64 -37.5 -107t-98.5 -43q-60 0 -97 40.5t-39 101.5q0 5 5 5h9q5 0 5 -5q2 -54 33.5 -89t83.5 -35q54 0 85.5 37.5t31.5 94.5v137q-15 -36 -46 -56.5 t-70 -20.5q-63 0 -100 43.5t-37 111.5v340q0 5 5 5h9q5 0 5 -5v-340q0 -61 32 -99t86 -38t85 38t31 99v340q0 5 5 5h9z" />
<glyph unicode="&#x152;" horiz-adv-x="609" d="M207 -7q-65 0 -105 45.5t-40 119.5v384q0 74 40 119.5t105 45.5q50 0 86 -28t50 -77q17 45 54.5 71.5t89.5 26.5h70q5 0 5 -5v-9q0 -5 -5 -5h-70q-62 0 -98.5 -40.5t-36.5 -105.5v-169h185q5 0 5 -5v-9q0 -5 -5 -5h-185v-182q0 -65 36.5 -105.5t98.5 -40.5h70q5 0 5 -5 v-9q0 -5 -5 -5h-70q-52 0 -89.5 26.5t-54.5 71.5q-14 -49 -50 -77t-86 -28zM207 12q56 0 90.5 40t34.5 106v384q0 66 -34.5 106t-90.5 40t-90.5 -40t-34.5 -106v-384q0 -66 34.5 -106t90.5 -40z" />
<glyph unicode="&#x153;" horiz-adv-x="625" d="M194 -7q-63 0 -99.5 42t-36.5 108v214q0 66 36.5 108t99.5 42q45 0 78 -25t47 -69q14 43 47.5 68.5t77.5 25.5q56 0 93 -42.5t37 -104.5q0 -67 -39.5 -107.5t-111.5 -40.5h-94v-69q0 -59 28 -95.5t83 -36.5q53 0 81 34.5t30 89.5q0 5 5 5h9q5 0 5 -5q-2 -62 -35.5 -102 t-94.5 -40q-49 0 -79.5 25t-42.5 68q-14 -44 -46.5 -68.5t-77.5 -24.5zM194 11q52 0 84 39t32 103v194q0 64 -32 103t-84 39q-54 0 -85.5 -37t-31.5 -95v-214q0 -58 31.5 -95t85.5 -37zM329 230h94q65 0 98.5 35t33.5 95q0 54 -31 91.5t-80 37.5q-51 0 -83 -37t-32 -93v-129 z" />
<glyph unicode="&#x178;" horiz-adv-x="414" d="M159 805q-22 0 -22 22t22 22t22 -22t-22 -22zM255 805q-22 0 -22 22t22 22t22 -22t-22 -22zM202 0q-5 0 -5 5v224q-59 5 -99.5 51t-40.5 114v301q0 5 5 5h10q5 0 5 -5v-301q0 -64 38 -105t92 -41q55 0 92.5 41t37.5 105v301q0 5 5 5h10q5 0 5 -5v-301q0 -68 -40.5 -114 t-99.5 -51v-224q0 -5 -5 -5h-10z" />
<glyph unicode="&#x2000;" horiz-adv-x="440" />
<glyph unicode="&#x2001;" horiz-adv-x="881" />
<glyph unicode="&#x2002;" horiz-adv-x="440" />
<glyph unicode="&#x2003;" horiz-adv-x="881" />
<glyph unicode="&#x2004;" horiz-adv-x="293" />
<glyph unicode="&#x2005;" horiz-adv-x="220" />
<glyph unicode="&#x2006;" horiz-adv-x="146" />
<glyph unicode="&#x2007;" horiz-adv-x="146" />
<glyph unicode="&#x2008;" horiz-adv-x="110" />
<glyph unicode="&#x2009;" horiz-adv-x="176" />
<glyph unicode="&#x200a;" horiz-adv-x="48" />
<glyph unicode="&#x2010;" horiz-adv-x="290" d="M30 246q-5 0 -5 5v9q0 5 5 5h230q5 0 5 -5v-9q0 -5 -5 -5h-230z" />
<glyph unicode="&#x2011;" horiz-adv-x="290" d="M30 246q-5 0 -5 5v9q0 5 5 5h230q5 0 5 -5v-9q0 -5 -5 -5h-230z" />
<glyph unicode="&#x2012;" horiz-adv-x="290" d="M30 246q-5 0 -5 5v9q0 5 5 5h230q5 0 5 -5v-9q0 -5 -5 -5h-230z" />
<glyph unicode="&#x2013;" horiz-adv-x="390" d="M30 246q-5 0 -5 5v9q0 5 5 5h330q5 0 5 -5v-9q0 -5 -5 -5h-330z" />
<glyph unicode="&#x2014;" horiz-adv-x="510" d="M25 260q0 5 5 5h450q5 0 5 -5v-9q0 -5 -5 -5h-450q-5 0 -5 5v9z" />
<glyph unicode="&#x2018;" horiz-adv-x="117" d="M65 561q0 -5 -5 -5h-19q-5 0 -4 5l21 134q0 5 6 5h5q5 0 5 -5z" />
<glyph unicode="&#x2019;" horiz-adv-x="117" d="M48 695q0 5 5 5h19q5 0 4 -5l-21 -134q0 -5 -6 -5h-5q-5 0 -5 5z" />
<glyph unicode="&#x201a;" horiz-adv-x="87" d="M29 43q0 5 5 5h19q5 0 4 -5l-21 -134q0 -5 -6 -5h-5q-5 0 -5 5z" />
<glyph unicode="&#x201c;" horiz-adv-x="187" d="M72 561q0 -5 -5 -5h-19q-5 0 -4 5l21 134q0 5 6 5h5q5 0 5 -5zM152 561q0 -5 -5 -5h-19q-5 0 -4 5l21 134q0 5 6 5h5q5 0 5 -5z" />
<glyph unicode="&#x201d;" horiz-adv-x="187" d="M34 695q0 5 5 5h19q5 0 4 -5l-21 -134q0 -5 -6 -5h-5q-5 0 -5 5zM114 695q0 5 5 5h19q5 0 4 -5l-21 -134q0 -5 -6 -5h-5q-5 0 -5 5z" />
<glyph unicode="&#x201e;" horiz-adv-x="92" d="M29 43q0 5 5 5h19q5 0 4 -5l-21 -134q0 -5 -6 -5h-5q-5 0 -5 5z" />
<glyph unicode="&#x2022;" horiz-adv-x="193" d="M97 206q-19 0 -31.5 12t-12.5 32q0 21 12 33.5t32 12.5q21 0 33.5 -12.5t12.5 -33.5q0 -20 -12.5 -32t-33.5 -12z" />
<glyph unicode="&#x2026;" horiz-adv-x="430" d="M75 -7q-22 0 -22 22t22 22t22 -22t-22 -22zM215 -7q-22 0 -22 22t22 22t22 -22t-22 -22zM355 -7q-22 0 -22 22t22 22t22 -22t-22 -22z" />
<glyph unicode="&#x202f;" horiz-adv-x="176" />
<glyph unicode="&#x2039;" horiz-adv-x="203" d="M156 83q-4 0 -6 3l-123 164q-5 7 0 14l123 164q2 3 6 3h11q7 0 3 -6l-126 -168l126 -168q4 -6 -3 -6h-11z" />
<glyph unicode="&#x203a;" horiz-adv-x="202" d="M47 83h-11q-7 0 -3 6l126 168l-126 168q-4 6 3 6h11q5 0 6 -3l123 -164q5 -7 0 -14l-123 -164q-1 -3 -6 -3z" />
<glyph unicode="&#x205f;" horiz-adv-x="220" />
<glyph unicode="&#x20ac;" horiz-adv-x="483" d="M431 158q5 0 5 -6q-2 -69 -46 -114t-112 -45t-113 47.5t-45 117.5v121h-68q-5 0 -5 5v8q0 5 5 5h68v105h-68q-5 0 -5 5v8q0 5 5 5h68v122q0 70 45 117.5t113 47.5q66 0 108.5 -46t44.5 -114q0 -5 -5 -5h-10q-5 0 -5 5q-2 61 -38 101t-95 40t-98.5 -42t-39.5 -104v-122 h218q5 0 5 -5v-8q0 -5 -5 -5h-218v-105h218q5 0 5 -5v-8q0 -5 -5 -5h-218v-121q0 -63 39.5 -104.5t98.5 -41.5q61 0 98.5 39.5t39.5 101.5q0 5 5 5h10z" />
<glyph unicode="&#x2122;" horiz-adv-x="442" d="M344 702q26 0 41 -18t15 -45v-207q0 -2 -2 -2h-8q-2 0 -2 2v204q0 24 -11.5 39t-32.5 15q-19 0 -31.5 -15.5t-12.5 -38.5v-204q0 -2 -2 -2h-8q-2 0 -2 2v204q0 23 -12 38.5t-31 15.5q-21 0 -33 -15t-12 -39v-204q0 -2 -2 -2h-8q-2 0 -2 2v207q0 27 15.5 45t41.5 18 q36 0 49 -40q15 40 50 40zM149 700q2 0 2 -1v-9q0 -2 -2 -2h-50v-255q0 -2 -2 -2h-8q-2 0 -2 2v255h-50q-1 0 -1 2v9q0 1 1 1h112z" />
<glyph unicode="&#x25fc;" horiz-adv-x="500" d="M0 500h500v-500h-500v500z" />
</font>
</defs>
</svg>
